<?xml version="1.0" encoding="UTF-8"?>
<svg id="uuid-0205628f-deb8-4485-975b-c19de772de54" data-name="Capa_1" xmlns="http://www.w3.org/2000/svg" viewBox="0 0 312.98 181.1">
  <g>
    <g>
      <path d="M30.26,130.57c-2.74-1.68-4.34-4.68-4.76-8.93-.5-3.17-.75-11.73-.75-26.11V0H.38c.6.19,1.11.4,1.53.64,2.23,1.37,3.68,3.78,4.33,7.19.71,3.82,1.06,10.99,1.06,21.29v72.23c0,10.81-.36,18.23-1.06,22.05-.65,3.29-2.18,5.79-4.56,7.45-.5.31-1.06.59-1.68.84h33.28c-1.29-.3-2.3-.67-3.03-1.11Z" style="fill: #d3ae37;"/>
      <path d="M105.39,113.13c4.98-5.39,9-12.24,11.94-20.35,1.67-4.62,2.84-8.47,3.48-11.44.63-2.93.95-6.75.95-11.36,0-13.56-2.69-25.73-7.99-36.17-5.38-10.19-13.63-18.52-24.51-24.73-7.15-3.95-16.26-6.62-27.2-7.99,1.56.35,3.02.74,4.37,1.18,6.79,2.07,13.01,6.01,18.47,11.7,4.07,4.37,8.36,13.23,12.78,26.35,2.91,9.25,4.39,19.74,4.39,31.2,0,14.87-2.55,27.32-7.59,36.99-5.17,9.73-11.6,16.35-19.14,19.68-2.5,1.08-5.38,1.96-8.6,2.66.65-.07,1.28-.14,1.86-.21,6.38-.8,12.8-2.58,19.09-5.29,6.56-2.6,12.5-6.7,17.68-12.2Z" style="fill: #d3ae37;"/>
    </g>
    <g>
      <path d="M212.32,77.81c-3.1-5.34-7.12-9.56-11.97-12.53-5.24-3.23-13.37-7.33-24.16-12.19-11.92-5.43-20.11-10.32-24.36-14.56-4.74-4.42-7.15-9.89-7.15-16.24,0-2.93.49-6.27,1.45-9.95.98-3.74,2.38-6.67,4.16-8.7,1.08-1.29,2.36-2.4,3.82-3.33-4.16,1.52-7.82,3.85-10.95,6.99-6.29,6.13-9.48,13.9-9.48,23.09,0,5.94,1.48,11.67,4.38,17.02,3.1,5.55,7.18,9.92,12.12,12.99,5.34,3.44,13.21,7.43,23.4,11.88,11.52,5.02,19.72,9.86,24.36,14.41,4.56,4.87,6.85,10.69,6.85,17.32,0,3.65-.69,7.68-2.06,11.98-1.38,4.34-3.28,7.87-5.65,10.5-2.67,2.79-5.89,4.87-9.63,6.25,7.35-1.49,13.52-4.66,18.43-9.47,7.18-6.74,10.81-15.79,10.81-26.91,0-6.96-1.47-13.2-4.38-18.55Z" style="fill: #d3ae37;"/>
      <path d="M141.42,126.85c1.59,0,3.45.23,5.64.7,3.11.67,6.37,1.47,9.7,2.38.88.24,1.77.48,2.7.72-3.5-2.03-6.67-4.81-9.51-8.33-5.85-7.27-10.27-17.15-13.14-29.42v35.29c.53-.54,1.32-.98,2.52-1.17.63-.11,1.33-.16,2.08-.16Z" style="fill: #d3ae37;"/>
      <path d="M189.36,2.73c-2.57-.39-4.74-.87-6.46-1.45,2.37,1.44,4.69,3.22,6.95,5.36,5.03,4.78,9.07,12.57,12.02,23.21V1.79c-1.19.87-2.99,1.08-3.76,1.17-2.71.31-5.65.24-8.76-.23Z" style="fill: #d3ae37;"/>
    </g>
    <g>
      <path d="M308.6,77.81c-3.1-5.34-7.12-9.56-11.97-12.53-5.24-3.23-13.37-7.33-24.16-12.19-11.92-5.43-20.11-10.32-24.36-14.56-4.74-4.42-7.15-9.89-7.15-16.24,0-2.93.49-6.27,1.45-9.95.98-3.74,2.38-6.67,4.16-8.7,1.08-1.29,2.36-2.4,3.82-3.33-4.16,1.52-7.82,3.85-10.95,6.99-6.29,6.13-9.48,13.9-9.48,23.09,0,5.94,1.48,11.67,4.38,17.02,3.1,5.55,7.18,9.92,12.12,12.99,5.34,3.44,13.21,7.43,23.4,11.88,11.52,5.02,19.72,9.86,24.36,14.41,4.56,4.87,6.85,10.69,6.85,17.32,0,3.65-.69,7.68-2.06,11.98-1.38,4.34-3.28,7.87-5.65,10.5-2.67,2.79-5.89,4.87-9.63,6.25,7.35-1.49,13.52-4.66,18.43-9.47,7.18-6.74,10.81-15.79,10.81-26.91,0-6.96-1.47-13.2-4.38-18.55Z" style="fill: #d3ae37;"/>
      <path d="M237.7,126.85c1.59,0,3.45.23,5.64.7,3.11.67,6.37,1.47,9.7,2.38.88.24,1.77.48,2.7.72-3.5-2.03-6.67-4.81-9.51-8.33-5.85-7.27-10.27-17.15-13.14-29.42v35.29c.53-.54,1.32-.98,2.52-1.17.63-.11,1.33-.16,2.08-.16Z" style="fill: #d3ae37;"/>
      <path d="M285.64,2.73c-2.57-.39-4.74-.87-6.46-1.45,2.37,1.44,4.69,3.22,6.95,5.36,5.03,4.78,9.07,12.57,12.02,23.21V1.79c-1.19.87-2.99,1.08-3.76,1.17-2.71.31-5.65.24-8.76-.23Z" style="fill: #d3ae37;"/>
    </g>
  </g>
  <g>
    <path d="M47.51,165.13h1.1l10.83,13.66v-13.66h1.12v15.7h-.87l-11.06-13.95v13.95h-1.12v-15.7Z" style="fill: #d3ae37;"/>
    <path d="M81.63,165.13h11.17v1.08h-10v6.17h8.99v1.08h-8.99v6.3h10.11v1.08h-11.28v-15.7Z" style="fill: #d3ae37;"/>
    <path d="M117.41,166.21h-5.47v-1.08h12.11v1.08h-5.47v14.62h-1.17v-14.62Z" style="fill: #d3ae37;"/>
    <path d="M142.79,165.13h1.3l4.93,13.97,4.6-14.01h.9l4.6,14.01,4.93-13.97h1.21l-5.7,15.81h-.94l-4.6-13.63-4.6,13.63h-.94l-5.69-15.81Z" style="fill: #d3ae37;"/>
    <path d="M183.64,173.03v-.05c0-4.28,3.16-8.12,7.92-8.12s7.87,3.79,7.87,8.07v.04c0,4.28-3.16,8.12-7.92,8.12s-7.87-3.79-7.87-8.07ZM198.21,173.03v-.05c0-3.88-2.82-7.06-6.7-7.06s-6.66,3.14-6.66,7.02v.04c0,3.88,2.82,7.06,6.7,7.06s6.66-3.14,6.66-7.02Z" style="fill: #d3ae37;"/>
    <path d="M219.8,165.13h6.59c1.93,0,3.48.61,4.42,1.55.74.74,1.19,1.79,1.19,2.92v.04c0,2.62-1.95,4.13-4.6,4.48l5.18,6.7h-1.48l-5-6.5h-5.13v6.5h-1.17v-15.7ZM226.26,173.27c2.62,0,4.57-1.32,4.57-3.59v-.05c0-2.11-1.66-3.43-4.51-3.43h-5.36v7.06h5.29Z" style="fill: #d3ae37;"/>
    <path d="M252.42,165.13h1.17v10.31l10-10.31h1.59l-6.86,6.93,7.15,8.77h-1.52l-6.46-7.94-3.9,3.95v3.99h-1.17v-15.7Z" style="fill: #d3ae37;"/>
  </g>
</svg>